<svg width="1440" height="1055" viewBox="0 0 1440 1055" fill="none" xmlns="http://www.w3.org/2000/svg">
<path d="M908.538 884L907.252 884.772C907.566 885.295 908.165 885.576 908.768 885.482L908.538 884ZM724 576.773L724.629 575.412C724.032 575.136 723.324 575.281 722.884 575.772C722.444 576.262 722.375 576.981 722.714 577.546L724 576.773ZM954.888 320L955.37 318.579C954.946 318.436 954.479 318.489 954.098 318.725C953.718 318.961 953.462 319.355 953.402 319.799L954.888 320ZM1458 490.604L1459.38 491.191C1459.54 490.807 1459.54 490.373 1459.37 489.992C1459.2 489.611 1458.88 489.318 1458.48 489.184L1458 490.604ZM1317.74 820.37L1317.97 821.852C1318.48 821.773 1318.91 821.434 1319.12 820.957L1317.74 820.37ZM1260.49 679.76L1261.24 681.058C1261.67 680.809 1261.95 680.364 1261.99 679.869L1260.49 679.76ZM1278.65 429.749L1280.15 429.857C1280.19 429.293 1279.91 428.754 1279.42 428.463C1278.94 428.172 1278.33 428.178 1277.85 428.478L1278.65 429.749ZM909.824 883.228L725.286 576.001L722.714 577.546L907.252 884.772L909.824 883.228ZM723.371 578.135L907.908 663.437L909.167 660.714L724.629 575.412L723.371 578.135ZM910.024 662.277L956.375 320.201L953.402 319.799L907.051 661.874L910.024 662.277ZM954.407 321.421L1457.52 492.025L1458.48 489.184L955.37 318.579L954.407 321.421ZM1456.62 490.017L1316.36 819.783L1319.12 820.957L1459.38 491.191L1456.62 490.017ZM1317.51 818.888L908.307 882.518L908.768 885.482L1317.97 821.852L1317.51 818.888ZM909.291 885.297L1261.24 681.058L1259.74 678.463L907.785 882.703L909.291 885.297ZM1261.99 679.869L1280.15 429.857L1277.15 429.64L1258.99 679.652L1261.99 679.869ZM1277.49 428.801L907.375 883.052L909.701 884.948L1279.81 430.696L1277.49 428.801ZM910.038 884V662.076H907.038V884H910.038ZM909.335 663.346L1279.45 431.019L1277.85 428.478L907.74 660.805L909.335 663.346Z" fill="white"/>
<path d="M706.299 575.335L705.435 576.561C705.863 576.863 706.418 576.919 706.898 576.71C707.378 576.501 707.714 576.057 707.785 575.538L706.299 575.335ZM992.871 536.823L991.755 537.825C992.201 538.322 992.921 538.464 993.522 538.174C994.123 537.885 994.461 537.233 994.35 536.574L992.871 536.823ZM922.381 117.399L923.86 117.15C923.733 116.393 923.054 115.854 922.288 115.902L922.381 117.399ZM614.949 136.619L614.855 135.122C614.357 135.153 613.907 135.431 613.654 135.862L614.949 136.619ZM748.878 264.903L749.52 266.259C749.638 266.203 749.749 266.132 749.849 266.047L748.878 264.903ZM923.52 118.632C924.152 118.096 924.229 117.149 923.693 116.518C923.157 115.886 922.211 115.809 921.579 116.345L923.52 118.632ZM992.35 538.136C993.096 538.495 993.992 538.181 994.352 537.434C994.711 536.688 994.397 535.792 993.65 535.432L992.35 538.136ZM729.027 409.775L729.678 408.423C729.488 408.332 729.281 408.281 729.071 408.275L729.027 409.775ZM459.043 400.469C458.215 400.445 457.525 401.097 457.501 401.925C457.477 402.753 458.129 403.443 458.957 403.467L459.043 400.469ZM458.913 402.96L705.435 576.561L707.163 574.108L460.64 400.507L458.913 402.96ZM707.785 575.538L750.235 265.145L747.262 264.739L704.813 575.132L707.785 575.538ZM750.183 264.505C750.051 264.072 749.815 263.69 749.49 263.408C749.332 263.27 749.134 263.141 748.9 263.054C748.702 262.981 748.308 262.876 747.848 263.015C747.596 263.091 747.3 263.251 747.068 263.549C746.832 263.852 746.744 264.194 746.742 264.489C746.737 265.011 746.988 265.376 747.1 265.521C747.359 265.858 747.721 266.095 748.044 266.267L749.453 263.618C749.27 263.52 749.35 263.526 749.477 263.692C749.523 263.751 749.746 264.046 749.742 264.515C749.739 264.783 749.659 265.104 749.437 265.39C749.218 265.671 748.942 265.818 748.714 265.887C748.302 266.011 747.976 265.912 747.857 265.867C747.701 265.809 747.592 265.733 747.523 265.673C747.379 265.547 747.328 265.426 747.314 265.38L750.183 264.505ZM747.632 265.944L991.755 537.825L993.987 535.821L749.865 263.94L747.632 265.944ZM994.35 536.574L923.86 117.15L920.902 117.647L991.392 537.072L994.35 536.574ZM922.288 115.902L614.855 135.122L615.043 138.116L922.475 118.896L922.288 115.902ZM613.654 135.862L458.482 400.976L461.071 402.491L616.243 137.377L613.654 135.862ZM459.344 400.298C459.281 400.317 459.334 400.3 459.273 400.319C459.159 400.353 459.319 400.305 459.207 400.339C459.132 400.362 459.22 400.335 459.146 400.357C459.136 400.36 459.14 400.359 459.131 400.362C459.126 400.363 459.122 400.364 459.117 400.366C459.006 400.4 459.199 400.341 459.089 400.374C459.073 400.379 458.999 400.402 458.989 400.405C458.936 400.42 458.953 400.415 458.907 400.429C458.813 400.458 458.931 400.422 458.843 400.449C458.772 400.47 458.863 400.443 458.798 400.462C458.791 400.464 458.771 400.47 458.77 400.471C458.762 400.473 458.771 400.47 458.763 400.473C458.763 400.473 458.764 400.473 458.763 400.473C458.763 400.473 458.763 400.473 458.763 400.473C458.763 400.473 458.763 400.473 458.763 400.473C458.762 400.473 458.762 400.473 458.762 400.473C458.761 400.473 458.762 400.473 458.762 400.473C458.762 400.473 458.761 400.473 458.761 400.473C458.761 400.473 458.761 400.473 458.761 400.473C458.761 400.473 458.761 400.473 458.761 400.473C458.761 400.473 458.761 400.473 458.761 400.473C458.761 400.473 458.761 400.473 459.194 401.909C459.628 403.345 459.628 403.345 459.628 403.345C459.628 403.345 459.628 403.345 459.628 403.345C459.628 403.345 459.628 403.345 459.628 403.345C459.628 403.345 459.628 403.345 459.628 403.345C459.628 403.345 459.628 403.345 459.628 403.345C459.628 403.345 459.628 403.345 459.629 403.345C459.629 403.345 459.629 403.345 459.629 403.345C459.629 403.345 459.629 403.345 459.63 403.345C459.632 403.344 459.629 403.345 459.631 403.344C459.633 403.344 459.63 403.345 459.633 403.344C459.634 403.343 459.632 403.344 459.634 403.344C459.634 403.343 459.634 403.344 459.635 403.343C459.636 403.343 459.635 403.343 459.637 403.343C459.64 403.342 459.654 403.337 459.664 403.334C459.703 403.323 459.634 403.344 459.674 403.332C459.674 403.332 459.676 403.331 459.676 403.331C459.679 403.33 459.676 403.331 459.679 403.33C459.68 403.33 459.681 403.329 459.682 403.329C459.684 403.328 459.682 403.329 459.684 403.328C459.7 403.324 459.693 403.326 459.71 403.321C459.738 403.312 459.709 403.321 459.739 403.312C459.785 403.298 459.726 403.316 459.773 403.302C459.804 403.292 459.78 403.3 459.812 403.29C459.875 403.271 459.791 403.296 459.855 403.277C459.889 403.267 459.916 403.259 459.955 403.247C460.086 403.207 459.937 403.252 460.073 403.211C460.075 403.211 460.076 403.21 460.077 403.21C460.079 403.209 460.08 403.209 460.081 403.209C460.092 403.205 460.079 403.209 460.09 403.206C460.094 403.205 460.101 403.203 460.106 403.201C460.107 403.201 460.109 403.2 460.11 403.2C460.111 403.199 460.113 403.199 460.114 403.199C460.125 403.195 460.112 403.199 460.123 403.196C460.124 403.196 460.125 403.195 460.127 403.195C460.128 403.194 460.13 403.194 460.131 403.194C460.15 403.188 460.12 403.197 460.139 403.191C460.158 403.185 460.19 403.176 460.21 403.17L459.344 400.298C459.281 400.317 459.334 400.3 459.273 400.319C459.159 400.353 459.319 400.305 459.207 400.339C459.132 400.362 459.22 400.335 459.146 400.357C459.136 400.36 459.14 400.359 459.131 400.362C459.126 400.363 459.122 400.364 459.117 400.366C459.006 400.4 459.199 400.341 459.089 400.374C459.073 400.379 458.999 400.402 458.989 400.405C458.936 400.42 458.953 400.415 458.907 400.429C458.813 400.458 458.931 400.422 458.843 400.449C458.772 400.47 458.863 400.443 458.798 400.462C458.791 400.464 458.771 400.47 458.77 400.471C458.762 400.473 458.771 400.47 458.763 400.473C458.763 400.473 458.764 400.473 458.763 400.473C458.763 400.473 458.763 400.473 458.763 400.473C458.763 400.473 458.763 400.473 458.763 400.473C458.762 400.473 458.762 400.473 458.762 400.473C458.761 400.473 458.762 400.473 458.762 400.473C458.762 400.473 458.761 400.473 458.761 400.473C458.761 400.473 458.761 400.473 458.761 400.473C458.761 400.473 458.761 400.473 458.761 400.473C458.761 400.473 458.761 400.473 458.761 400.473C458.761 400.473 458.761 400.473 459.194 401.909C459.628 403.345 459.628 403.345 459.628 403.345C459.628 403.345 459.628 403.345 459.628 403.345C459.628 403.345 459.628 403.345 459.628 403.345C459.628 403.345 459.628 403.345 459.628 403.345C459.628 403.345 459.628 403.345 459.628 403.345C459.628 403.345 459.628 403.345 459.629 403.345C459.629 403.345 459.629 403.345 459.629 403.345C459.629 403.345 459.629 403.345 459.63 403.345C459.632 403.344 459.629 403.345 459.631 403.344C459.633 403.344 459.63 403.345 459.633 403.344C459.634 403.343 459.632 403.344 459.634 403.344C459.634 403.343 459.634 403.344 459.635 403.343C459.636 403.343 459.635 403.343 459.637 403.343C459.64 403.342 459.654 403.337 459.664 403.334C459.703 403.323 459.634 403.344 459.674 403.332C459.674 403.332 459.676 403.331 459.676 403.331C459.679 403.33 459.676 403.331 459.679 403.33C459.68 403.33 459.681 403.329 459.682 403.329C459.684 403.328 459.682 403.329 459.684 403.328C459.7 403.324 459.693 403.326 459.71 403.321C459.738 403.312 459.709 403.321 459.739 403.312C459.785 403.298 459.726 403.316 459.773 403.302C459.804 403.292 459.78 403.3 459.812 403.29C459.875 403.271 459.791 403.296 459.855 403.277C459.889 403.267 459.916 403.259 459.955 403.247C460.086 403.207 459.937 403.252 460.073 403.211C460.075 403.211 460.076 403.21 460.077 403.21C460.079 403.209 460.08 403.209 460.081 403.209C460.092 403.205 460.079 403.209 460.09 403.206C460.094 403.205 460.101 403.203 460.106 403.201C460.107 403.201 460.109 403.2 460.11 403.2C460.111 403.199 460.113 403.199 460.114 403.199C460.125 403.195 460.112 403.199 460.123 403.196C460.124 403.196 460.125 403.195 460.127 403.195C460.128 403.194 460.13 403.194 460.131 403.194C460.15 403.188 460.12 403.197 460.139 403.191C460.158 403.185 460.19 403.176 460.21 403.17L459.344 400.298ZM460.418 403.089L749.52 266.259L748.236 263.547L459.135 400.378L460.418 403.089ZM749.849 266.047L923.52 118.632L921.579 116.345L747.907 263.76L749.849 266.047ZM993.65 535.432L729.678 408.423L728.377 411.126L992.35 538.136L993.65 535.432ZM729.071 408.275L459.043 400.469L458.957 403.467L728.984 411.274L729.071 408.275Z" fill="white"/>
<path d="M-98.4193 820.267L-99.9012 820.016C-99.9765 820.455 -99.8515 820.904 -99.5603 821.242C-99.269 821.58 -98.8418 821.771 -98.3946 821.763L-98.4193 820.267ZM-32.3035 434.66L-32.7579 433.233C-33.2942 433.403 -33.6908 433.857 -33.7854 434.409L-32.3035 434.66ZM431.13 288.131L432.576 287.72C432.387 287.059 431.769 286.611 431.079 286.635L431.13 288.131ZM518.97 594.892L520.244 595.686C520.47 595.326 520.533 594.888 520.416 594.481L518.97 594.892ZM382.379 812.107L382.404 813.604C382.913 813.595 383.383 813.331 383.653 812.901L382.379 812.107ZM82.572 701.21L81.4212 700.248C81.1067 700.621 80.9937 701.122 81.1183 701.593C81.243 702.063 81.5896 702.444 82.0477 702.613L82.572 701.21ZM-170.363 308.867L-170.414 307.372C-171.025 307.393 -171.562 307.779 -171.774 308.35C-171.985 308.921 -171.829 309.562 -171.378 309.972L-170.363 308.867ZM-96.9374 820.518L-30.8217 434.911L-33.7854 434.409L-99.9012 820.016L-96.9374 820.518ZM-31.8493 436.086L431.584 289.557L430.676 286.704L-32.7579 433.233L-31.8493 436.086ZM429.684 288.542L517.524 595.303L520.416 594.481L432.576 287.72L429.684 288.542ZM517.696 594.098L381.105 811.314L383.653 812.901L520.244 595.686L517.696 594.098ZM382.903 810.704L83.0962 699.807L82.0477 702.613L381.855 813.51L382.903 810.704ZM83.7228 702.172L432.281 289.093L429.979 287.168L81.4212 700.248L83.7228 702.172ZM431.079 286.635L-170.414 307.372L-170.312 310.363L431.181 289.626L431.079 286.635ZM-171.378 309.972L381.364 813.212L383.394 811.002L-169.348 307.763L-171.378 309.972ZM382.354 810.611L-98.4441 818.77L-98.3946 821.763L382.404 813.604L382.354 810.611Z" fill="white"/>
<path d="M368.997 880.139L367.522 879.861C367.44 880.3 367.557 880.752 367.841 881.096C368.126 881.439 368.549 881.638 368.995 881.639L368.997 880.139ZM428.199 565.733L427.771 564.295C427.233 564.455 426.829 564.903 426.725 565.455L428.199 565.733ZM808.465 452.657L809.914 452.269C809.736 451.604 809.128 451.146 808.44 451.157L808.465 452.657ZM875.999 704.826L877.256 705.644C877.489 705.288 877.559 704.849 877.448 704.438L875.999 704.826ZM761.558 880.483L761.557 881.983C762.064 881.983 762.538 881.727 762.815 881.302L761.558 880.483ZM518.347 785.409L517.216 784.424C516.895 784.791 516.774 785.293 516.89 785.767C517.006 786.241 517.346 786.629 517.801 786.806L518.347 785.409ZM317.216 460.838L317.191 459.338C316.581 459.348 316.038 459.727 315.817 460.295C315.597 460.864 315.742 461.51 316.186 461.928L317.216 460.838ZM370.471 880.416L429.673 566.011L426.725 565.455L367.522 879.861L370.471 880.416ZM428.626 567.171L808.893 454.095L808.038 451.219L427.771 564.295L428.626 567.171ZM807.016 453.045L874.551 705.214L877.448 704.438L809.914 452.269L807.016 453.045ZM874.743 704.007L760.301 879.664L762.815 881.302L877.256 705.644L874.743 704.007ZM762.104 879.086L518.893 784.012L517.801 786.806L761.012 881.88L762.104 879.086ZM519.477 786.395L809.596 453.643L807.335 451.671L517.216 784.424L519.477 786.395ZM808.44 451.157L317.191 459.338L317.241 462.338L808.49 454.157L808.44 451.157ZM316.186 461.928L760.528 881.573L762.588 879.392L318.246 459.747L316.186 461.928ZM761.559 878.983L368.998 878.639L368.995 881.639L761.557 881.983L761.559 878.983Z" fill="white"/>
</svg>
