<?xml version="1.0" encoding="utf-8"?>
<!-- Generator: Adobe Illustrator 23.0.2, SVG Export Plug-In . SVG Version: 6.00 Build 0)  -->
<svg version="1.1" id="Слой_1" xmlns="http://www.w3.org/2000/svg" xmlns:xlink="http://www.w3.org/1999/xlink" x="0px" y="0px"
	 viewBox="0 0 609.8 228.6" style="enable-background:new 0 0 609.8 228.6;" xml:space="preserve">
<style type="text/css">
	.st0{fill:#FFFFFF;}
</style>
<g>
	<path class="st0" d="M44.9,44.9l29.9,29.9v15l-15,15H15l-15-15h59.8V59.8H29.9L0,29.9V15L15,0h44.9l15,15H15v29.9H44.9z"/>
	<path class="st0" d="M100,0v104.7H85V0H100z M100,44.9h29.9l15,15h-29.9L100,44.9z M144.9,44.9h-15l15-15V0h15v29.9L144.9,44.9z
		 M144.9,104.7V59.8l15,15v29.9H144.9z"/>
	<path class="st0" d="M244.8,29.9l-15,15V15H185v29.9h44.9l-15,15H185v44.9h-15V0h59.8l15,15V29.9z M229.9,104.7V44.9l15,15v44.9
		H229.9z"/>
	<path class="st0" d="M270,0v44.9l-15-15V0H270z M270,44.9h44.9l-15,15v29.9l-15,15V59.8L270,44.9z M329.8,0v29.9l-15,15V0H329.8z"
		/>
	<path class="st0" d="M355,104.7h-15V29.9l15-15V104.7z M414.9,0v104.7h-15V74.8H355l15-15h29.9V15H355l15-15H414.9z"/>
	<path class="st0" d="M499.7,59.8v29.9l-15,15h-59.8V0h44.9l15,15v29.9l-15,15h-29.9v29.9h44.9V44.9L499.7,59.8z M439.9,44.9h29.9
		V15h-29.9V44.9z"/>
	<path class="st0" d="M509.9,104.7V0h15v104.7H509.9z"/>
	<path class="st0" d="M550,0l15,15h-15v89.8h-15V0H550z M579.9,29.9v59.8l-15-15V15L579.9,29.9z M609.8,0v104.7h-15l-15-15h15V0
		H609.8z"/>
	<path class="st0" d="M15,213.6h59.8l-15,15H15l-15-15v-74.8l15-15h44.9l15,15H15V213.6z"/>
	<path class="st0" d="M100,138.8v29.9h44.9l-15,15H100v29.9h44.9l-15,15H85V123.9h59.8v15H100z"/>
	<path class="st0" d="M170,123.9l15,15h-15v89.8h-15V123.9H170z M199.9,153.8v59.8l-15-15v-59.8L199.9,153.8z M229.8,123.9v104.7
		h-15l-15-15h15v-89.8H229.8z"/>
	<path class="st0" d="M314.8,123.9l-15,15h-15v89.8h-15v-89.8H240v-15H314.8z"/>
	<path class="st0" d="M340,138.8v29.9h44.9l-15,15H340v29.9h44.9l-15,15H325V123.9h59.8v15H340z"/>
	<path class="st0" d="M469.8,153.8l-15,15v-29.9H410v29.9h44.9l-15,15H410v44.9h-15V123.9h59.8l15,15V153.8z M454.9,228.6v-59.8
		l15,15v44.9H454.9z"/>
</g>
</svg>
