<?xml version="1.0" encoding="utf-8"?>
<!-- Generator: Adobe Illustrator 23.0.2, SVG Export Plug-In . SVG Version: 6.00 Build 0)  -->
<svg version="1.1" xmlns="http://www.w3.org/2000/svg" xmlns:xlink="http://www.w3.org/1999/xlink" x="0px" y="0px"
	 viewBox="0 0 743.9 92" style="enable-background:new 0 0 743.9 92;" xml:space="preserve">
<style type="text/css">
	.st0{fill:none;stroke:#FFFFFF;stroke-width:3;stroke-linecap:round;stroke-linejoin:round;stroke-miterlimit:10;}
	.st1{display:none;}
	.st2{display:inline;fill:none;stroke:#000000;stroke-width:3;stroke-linecap:round;stroke-linejoin:round;stroke-miterlimit:10;}
	.st3{fill:none;}
	.st4{fill:#FFFFFF;}
	.st5{font-family:'SpaceGrotesk-Light';}
	.st6{font-size:74px;}
</style>
<g id="Слой_1">
	<g id="Слой_3">
		<path class="st0" d="M20.6,42.2l23.3,30l16.5-36c0-0.1-0.1-0.1,0,0L79.8,78l6.9-53.3L49,15.8L20.6,42.2
			C20.5,42.2,20.5,42.2,20.6,42.2l39.8-6l26.3-11.5"/>
		<polyline class="st0" points="79.8,78 52.7,53 20.5,42.2 		"/>
	</g>
	<g class="st1">
		<polygon class="st2" points="76.3,13.4 75.1,55.3 28.3,77.6 14.6,46.4 25.7,21.3 59,28.7 28.3,77.6 91.5,66.5 25.7,21.3 		"/>
	</g>
</g>
<g id="Слой_3_1_">
	<rect x="107.1" y="21.1" class="st3" width="629.6" height="59.7"/>
	<text transform="matrix(1 0 0 1 107.0984 72.9398)" class="st4 st5 st6">SKRYABIN CENTER</text>
</g>
<g id="Слой_2">
</g>
</svg>
