<?xml version="1.0" encoding="utf-8"?>
<!-- Generator: Adobe Illustrator 23.0.2, SVG Export Plug-In . SVG Version: 6.00 Build 0)  -->
<svg version="1.1" xmlns="http://www.w3.org/2000/svg" xmlns:xlink="http://www.w3.org/1999/xlink" x="0px" y="0px"
	 viewBox="0 0 633.1 253.7" style="enable-background:new 0 0 633.1 253.7;" xml:space="preserve">
<style type="text/css">
	.st0{fill:#FFFFFF;}
	.st1{opacity:0.6;fill:none;stroke:#FFFFFF;stroke-width:0.75;stroke-miterlimit:10;}
	.st2{opacity:0.6;fill:none;stroke:#000000;stroke-width:0.75;stroke-miterlimit:10;}
	.st3{fill:none;}
	.st4{opacity:0.6;}
	.st5{font-family:'TTCommons-Regular';}
	.st6{font-size:8px;}
	.st7{opacity:0.6;fill:#FFFFFF;stroke:#FFFFFF;stroke-width:0.75;stroke-miterlimit:10;}
</style>
<g id="Слой_4">
	<rect y="0" width="633.1" height="253.7"/>
</g>
<g id="Слой_1">
	<g>
		<path class="st0" d="M56.4,57.7l29.9,29.9v15l-15,15H26.5l-15-15h59.8v-30H41.4L11.5,42.7V27.8l15-15h44.9l15,15H26.5v29.9H56.4z"
			/>
		<path class="st0" d="M111.5,12.8v104.7h-15V12.8H111.5z M111.5,57.7h29.9l15,15h-29.9L111.5,57.7z M156.4,57.7h-15l15-15V12.8h15
			v29.9L156.4,57.7z M156.4,117.5V72.6l15,15v29.9C171.4,117.5,156.4,117.5,156.4,117.5z"/>
		<path class="st0" d="M256.3,42.7l-15,15V27.8h-44.8v29.9h44.9l-15,15h-29.9v44.9h-15V12.8h59.8l15,15V42.7z M241.4,117.5V57.7
			l15,15v44.9h-15V117.5z"/>
		<path class="st0" d="M281.5,12.8v44.9l-15-15V12.8H281.5z M281.5,57.7h44.9l-15,15v29.9l-15,15v-45L281.5,57.7z M341.3,12.8v29.9
			l-15,15V12.8H341.3z"/>
		<path class="st0" d="M366.5,117.5h-15V42.7l15-15V117.5z M426.4,12.8v104.7h-15V87.6h-44.9l15-15h29.9V27.8h-44.9l15-15H426.4z"/>
		<path class="st0" d="M511.2,72.6v29.9l-15,15h-59.8V12.8h44.9l15,15v29.9l-15,15h-29.9v29.9h44.9V57.7L511.2,72.6z M451.4,57.7
			h29.9V27.8h-29.9V57.7z"/>
		<path class="st0" d="M521.4,117.5V12.8h15v104.7H521.4z"/>
		<path class="st0" d="M561.5,12.8l15,15h-15v89.8h-15V12.8H561.5z M591.4,42.7v59.8l-15-15V27.8L591.4,42.7z M621.3,12.8v104.7h-15
			l-15-15h15V12.8H621.3z"/>
		<path class="st0" d="M26.5,226.4h59.8l-15,15H26.5l-15-15v-74.8l15-15h44.9l15,15H26.5V226.4z"/>
		<path class="st0" d="M111.5,151.6v29.9h44.9l-15,15h-29.9v29.9h44.9l-15,15H96.5V136.7h59.8v15L111.5,151.6L111.5,151.6z"/>
		<path class="st0" d="M181.5,136.7l15,15h-15v89.8h-15V136.7H181.5z M211.4,166.6v59.8l-15-15v-59.8L211.4,166.6z M241.3,136.7
			v104.7h-15l-15-15h15v-89.8L241.3,136.7L241.3,136.7z"/>
		<path class="st0" d="M326.3,136.7l-15,15h-15v89.8h-15v-89.8h-29.8v-15C251.5,136.7,326.3,136.7,326.3,136.7z"/>
		<path class="st0" d="M351.5,151.6v29.9h44.9l-15,15h-29.9v29.9h44.9l-15,15h-44.9V136.7h59.8v15L351.5,151.6L351.5,151.6z"/>
		<path class="st0" d="M481.3,166.6l-15,15v-29.9h-44.8v29.9h44.9l-15,15h-29.9v44.9h-15V136.7h59.8l15,15V166.6z M466.4,241.4
			v-59.8l15,15v44.9h-15V241.4z"/>
	</g>
</g>
<g id="Слой_2">
	<path class="st1" d="M21.3,52.5c-0.7,4-5.1,6.5-9.8,5.6"/>
	<path class="st2" d="M71.5,117.9c-1.6-4.3,0.4-9,4.5-10.5"/>
	<rect x="14.4" y="59.9" class="st3" width="11.6" height="5.8"/>
	<g class="st4">
		<text transform="matrix(1 0 0 1 14.9715 64.9679)" class="st0 st5 st6">45</text>
		<text transform="matrix(0.583 0 0 0.583 22.8113 62.3039)" class="st0 st5 st6">0</text>
	</g>
	<rect x="59.9" y="107.3" class="st3" width="11.6" height="5.8"/>
	<g class="st4">
		<text transform="matrix(1 0 0 1 60.4825 112.3733)" class="st5 st6">45</text>
		<text transform="matrix(0.583 0 0 0.583 68.3223 109.7092)" class="st5 st6">0</text>
	</g>
</g>
<g id="Слой_3">
	<line class="st7" x1="89.4" y1="120.6" x2="6" y2="37.2"/>
	<line class="st7" x1="30.9" y1="122" x2="6" y2="97"/>
	<line class="st7" x1="86.4" y1="5.6" x2="86.4" y2="122"/>
	<line class="st7" x1="11.5" y1="6.5" x2="11.5" y2="122"/>
	<line class="st7" x1="11.5" y1="131.3" x2="11.5" y2="246.7"/>
	<line class="st7" x1="481.3" y1="131.4" x2="481.3" y2="246.8"/>
	<line class="st7" x1="621.3" y1="8" x2="621.3" y2="123.5"/>
	<line class="st7" x1="6.5" y1="12.8" x2="628.4" y2="12.8"/>
	<line class="st7" x1="5.4" y1="241.4" x2="487.5" y2="241.4"/>
	<line class="st7" x1="5.4" y1="136.6" x2="487.5" y2="136.6"/>
	<line class="st7" x1="4.3" y1="117.5" x2="626.7" y2="117.5"/>
</g>
</svg>
