<?xml version="1.0" encoding="utf-8"?>
<!-- Generator: Adobe Illustrator 23.0.2, SVG Export Plug-In . SVG Version: 6.00 Build 0)  -->
<svg version="1.1" id="Слой_1" xmlns="http://www.w3.org/2000/svg" xmlns:xlink="http://www.w3.org/1999/xlink" x="0px" y="0px"
	 viewBox="0 0 538.2 689.6" style="enable-background:new 0 0 538.2 689.6;" xml:space="preserve">
<style type="text/css">
	.st0{fill:none;stroke:#FFFFFF;stroke-width:3;stroke-miterlimit:10;}
</style>
<path class="st0" d="M177,394.3l7.7,70.2l45.1,111.7l26.5,74.1l24.7,37.2c0.1,0.2,0.4,0.2,0.5-0.1l31.4-89.8l34.4-118.1l-3.7-68.5
	l8.2-27.2l4.5-22.9l-46.3,2l-38.8-11.4l-40.7-17.9l-37.3-23.4l-14-24.8l-1.9,8.9l-8.5,3l-15.4-6.5l-14.9-9.4L128,264l-10.4-16.9
	l-3-22.4l10-10.5l20.3,2.5l36.3,11.5l-7.9-41.8l12.9-30.8l-20.4-35.3L193.7,88L226,73l38.8,3l17.9-9.9L328.9,86l23.4,30.8l11.9,22.4
	l9,20.4l-1.5,17.4l4,22.8l6.9,29.4l2,31.3l12.4,20.4l10.5-9l1-20.4l6.4,19.4l-8.9,17.9l-13.9,10l-11.9-6.9c-0.1,0-0.1,0-0.1,0.1
	v13.3l-6.4,26.4l-17.4,29.3l32.8,47.8l18.4,6.9l82.5,25.9l46.6,14.1V688H1.6V497.9L69,455.1L89.7,444l20.3-10.1l23.5-17.8l13.5-15.9
	l13.5-11.5l6.3-21.2l7.2-8.2v-5.8l-2.4-11.5l-18.3-32.3L129.2,276l-16.9-27l-22.7-49.7l5-25.5l-10-39.7l16.6-40.7l22.9-32.3
	l33.8-24.4l9.9-10.9l28.4-13.9l18.9-9.5h15.4l31.8,3.5l35.8,28.8l31.3,36.8l23.4,16l21.4,23.8v23.9l3.5,18.4l-1,22.9l-0.6,25.3"/>
<path class="st0" d="M219.7,177l16.1-21.3l16.6-9.8l14.6,2l15-2l10.2,2.9c0.4,0.1,0.6,0.5,0.4,0.9l-4.9,11.7h-34.8L219.7,177z"/>
<path class="st0" d="M325.8,157.1l5.3-13.4c0,0,0.1-0.1,0.1-0.1h11.1c0,0,0,0,0,0l8.2-1.9c0,0,0.1,0,0.1,0l16.7,7.8c0,0,0,0,0.1,0.1
	l4.6,10.2c0,0.1-0.1,0.2-0.2,0.2l-15.9-7.4c0,0,0,0-0.1,0l-30.1,4.9C325.8,157.3,325.8,157.2,325.8,157.1z"/>
<polygon class="st0" points="247.4,190.5 252,184.5 266.7,179.5 275.3,179.5 280.6,187.2 291,190.5 279.6,190.5 269.2,192.6 
	262.2,193.7 "/>
<polyline class="st0" points="331.4,183.8 343.8,177.8 353.6,177 359.8,188.7 353.1,190.8 349,190.8 "/>
<line class="st0" x1="351" y1="223.9" x2="343.6" y2="236.7"/>
<polyline class="st0" points="311.2,244 310.2,259.3 294.9,279.4 270.4,292.7 256.2,282.4 247.4,270.6 245.8,281 254.9,297.7 
	283,308.8 313.7,298.9 329.6,279.1 347.4,277.8 368.5,289.7 380.1,291.8 "/>
<path class="st0" d="M343.6,236.7l16.2,7.3l17.6,11l6.5,4.9c0.4,0.3,0.6,0.9,0.3,1.4l-15.6,28.4"/>
<polyline class="st0" points="316.1,295.9 331.4,297.9 351,295.9 362.6,286.4 "/>
<polyline class="st0" points="169.3,268.7 159.7,258.6 158.6,245.1 151.8,236.7 146.3,230 131.8,219.4 123.5,219.4 120.1,227.1 
	123.5,245.1 133.5,256.8 139.4,271.6 151.9,278.1 "/>
<polyline class="st0" points="146.5,259.2 146.5,245.8 151.8,236.7 "/>
<polyline class="st0" points="219.9,422.6 186.5,403.2 177,394.3 174,359.3 "/>
<polyline class="st0" points="339.3,361.7 335.7,364.5 319.8,378.7 279.3,444.3 292.2,446.5 304.2,451.7 337.4,449.6 332.3,418.1 
	348,396.5 "/>
<polyline class="st0" points="313.6,451.7 309.3,468.3 313.6,491 322.3,507 334.7,522.8 "/>
<polyline class="st0" points="287.7,508.3 309.3,503.7 322.3,507 "/>
<line class="st0" x1="269.2" y1="443.5" x2="279.3" y2="444.3"/>
<polyline class="st0" points="124.1,61.1 215,38.6 226,73 "/>
<path class="st0" d="M110,433.9l26.9,151.6c0,0.2,0.2,0.5,0.4,0.6l110.1,83.4c0,0,0.1,0.1,0.1,0.1l32.4,17.6
	c0.7,0.4,1.4-0.1,1.5-0.8l6.3-178.1"/>
<path class="st0" d="M325.7,157.3l-3.6,11.6l3.6,8.1l10.6,19.6l15.5,15.6v9.4l-0.8,2.3l0.8,10.9l-2.8,2.8l-5.4-0.9L337,244l-7.4-5.2
	l3-6.4c0-0.1,0-0.2-0.1-0.3l-8.7-2.2l-10.7,7.5l-1.9,6.6l-11-4.9l-1.2-10.7l11.3-14.1l9.9-8.7l-16.6-33.4l-3.2-10.9l-7.5-12.4
	l-11.6-22.6L265,76.5c-0.1-0.2,0.1-0.4,0.3-0.3L328.3,96"/>
<polyline class="st0" points="328.9,86 326.7,119.8 331.1,143.6 292.9,149 "/>
<line class="st0" x1="281.3" y1="126.4" x2="326.7" y2="119.8"/>
<polyline class="st0" points="158.6,245.1 214.8,260.5 245.8,281 "/>
<line class="st0" x1="193.7" y1="88" x2="235.8" y2="155.7"/>
<path class="st0" d="M256.2,216.8l-81.9-30c-0.2-0.1-0.2-0.4,0.1-0.4l30.7-2.5c0,0,0.1,0,0.1,0l14.6-6.8l21.9,9.6l18.3-16.3
	l14.1-1.4l21.4,14.4"/>
<line class="st0" x1="186.2" y1="155.6" x2="205" y2="183.8"/>
<path class="st0" d="M310.2,259.3L256.4,217c-0.1-0.1-0.3-0.1-0.5,0l-40.8,43.1c-0.2,0.2-0.5,0.1-0.6-0.1l-9.5-20.4l-23.8-11.4"/>
<line class="st0" x1="193.2" y1="310.2" x2="189.7" y2="360.4"/>
<line class="st0" x1="168.8" y1="297.3" x2="171.6" y2="342"/>
<polyline class="st0" points="178.3,282.7 254.9,297.7 271.2,351.5 228,376.7 269.2,443.5 256.3,446.8 248.6,451.7 214.5,451.7 
	228,376.7 189.7,360.4 172.3,345.2 "/>
<path class="st0" d="M329.4,71.5L301,73.4c-0.7,0-1.5-0.3-1.9-0.9l-19.8-30.2L230.5,2.4"/>
<line class="st0" x1="279.3" y1="42.2" x2="298.1" y2="34.7"/>
<polyline class="st0" points="270.4,292.7 256,217 320.2,205.6 334.6,216.8 332.7,232.2 "/>
<polyline class="st0" points="283,308.8 310,362.9 319.8,378.7 "/>
<polyline class="st0" points="295.4,335.3 339.4,327.7 373.7,331.6 "/>
<path class="st0" d="M345.3,205.6l31.1,2.4c0.7,0.1,1.1,0.7,0.9,1.4l-13.1,37.3"/>
<line class="st0" x1="339.4" y1="327.7" x2="339.4" y2="297.1"/>
<line class="st0" x1="246.2" y1="191" x2="256" y2="217"/>
<line class="st0" x1="313.1" y1="237.4" x2="310.3" y2="214.3"/>
<line class="st0" x1="303.6" y1="172.3" x2="322.1" y2="168.9"/>
<polyline class="st0" points="351.8,212.2 334.6,216.8 323.8,229.9 "/>
<path class="st0" d="M329.6,279.1"/>
<path class="st0" d="M207.1,468l0.2,51.8c0,0.2,0.2,0.3,0.3,0.1l38.2-58.1"/>
<path class="st0" d="M254.3,472.4l-6.1,40.9l-25.3,44c-0.1,0.2,0.1,0.3,0.3,0.2l32.7-29.1l31.9-20.1l-2.9-8.9l-10.4-10.3l-8.3-16.7
	H254.3l-8.5-10.6l-16.6,6.2h-22.1l-23.4-12.3"/>
<polyline class="st0" points="389.1,408.7 418.6,481.5 365.2,625.7 316.1,688 "/>
<path class="st0" d="M174.3,186.3L95.4,174c-0.4-0.1-0.6-0.5-0.3-0.8l40.6-58.6c0.1-0.2,0.3-0.3,0.5-0.2l29.6,6"/>
<path class="st0" d="M347.4,277.8l-10.1-33c-0.1-0.2-0.4-0.2-0.4,0l-7.2,34.3"/>
<polyline class="st0" points="536.6,455.6 418.6,481.5 536.6,688 "/>
<line class="st0" x1="184.7" y1="464.5" x2="131" y2="552.5"/>
<line class="st0" x1="347.3" y1="479.5" x2="365.2" y2="625.7"/>
<line class="st0" x1="294.9" y1="279.4" x2="313.7" y2="298.9"/>
<line class="st0" x1="309.3" y1="468.3" x2="266.1" y2="472.4"/>
<polyline class="st0" points="373.2,159.6 365.2,183.8 361.8,177 349,167.4 340.5,167.4 329.6,177 "/>
<polyline class="st0" points="1.6,625.8 46,598.9 137,585.9 137,688 "/>
<polyline class="st0" points="54.2,464.5 46,598.9 78.1,688 "/>
</svg>
